<?xml version="1.0" ?><svg viewBox="0 0 32 32" xmlns="http://www.w3.org/2000/svg"><title/><g data-name="behance network media social be" id="behance_network_media_social_be"><path d="M13.43,15.63A5,5,0,0,0,10,7H4A1,1,0,0,0,3,8V24a1,1,0,0,0,1,1h7a5,5,0,0,0,2.43-9.37ZM11,23H5V9h5a3,3,0,0,1,0,6H8a1,1,0,0,0,0,2h3a3,3,0,0,1,0,6Z"/><path d="M23,12a6.27,6.27,0,0,0-6,6.5A6.27,6.27,0,0,0,23,25a5.9,5.9,0,0,0,4.83-2.64,1,1,0,0,0-1.66-1.12A3.83,3.83,0,0,1,23,23a4.27,4.27,0,0,1-4-4.5A4.27,4.27,0,0,1,23,14a4.14,4.14,0,0,1,3.9,3.5H21.49a1,1,0,1,0,0,2H28a1,1,0,0,0,1-1A6.27,6.27,0,0,0,23,12Z"/><path d="M19.5,10h7a1,1,0,0,0,0-2h-7a1,1,0,0,0,0,2Z"/></g></svg>